<?xml version="1.0" encoding="utf-8"?>
<!-- Generator: Adobe Illustrator 25.4.0, SVG Export Plug-In . SVG Version: 6.00 Build 0)  -->
<svg version="1.1" id="Слой_1" xmlns="http://www.w3.org/2000/svg" xmlns:xlink="http://www.w3.org/1999/xlink" x="0px" y="0px"
	 viewBox="0 0 101 32" style="enable-background:new 0 0 101 32;" xml:space="preserve" width="101" height="32">
<style type="text/css">
	.st0{fill:#FFFFFF;}
</style>
<path class="st0" d="M43.9,8.1h-2.1l-6.4,15.4h2.3l1.3-3.1h7.7l1.3,3.1h2.3L43.9,8.1z M42.8,11.1l3,7.2h-5.9L42.8,11.1z"/>
<path class="st0" d="M54.9,15.9v1h-4.9v-1H54.9z"/>
<path class="st0" d="M57.7,7.9h-1.1v15.9h9.9v-1.1h-8.9V7.9z"/>
<path class="st0" d="M71.5,12.2c-1.6,0-3.1,0.6-4.2,1.8c-1.1,1.1-1.7,2.6-1.7,4.2c0,1.2,0.4,2.3,1,3.3c0.7,1,1.6,1.7,2.7,2.2
	c1.1,0.5,2.3,0.6,3.4,0.3c1.2-0.2,2.2-0.8,3-1.6l0.1-0.1l-0.8-0.8l-0.1,0.1c-0.6,0.6-1.5,1.1-2.4,1.3c-0.9,0.2-1.8,0.1-2.7-0.2
	c-0.9-0.3-1.6-0.8-2.2-1.6c-0.6-0.7-0.9-1.6-1-2.5h10.8v-0.5c0-1.6-0.6-3.1-1.8-4.2C74.6,12.9,73.1,12.3,71.5,12.2z M71.5,13.3
	c1.2,0,2.3,0.5,3.2,1.3c0.9,0.8,1.5,1.9,1.6,3.1h-9.6c0.1-1.2,0.7-2.3,1.6-3.1C69.1,13.8,70.3,13.3,71.5,13.3L71.5,13.3z"/>
<path class="st0" d="M86.2,12.6l-4.3,10.3l-4.2-10.2l0-0.1h-1.2l4.6,11.1l0,0.1h1.5l4.7-11.3H86.2z"/>
<path class="st0" d="M92.3,12.2c-1.6,0-3.1,0.6-4.2,1.8s-1.7,2.6-1.8,4.2c0,1.2,0.4,2.3,1,3.3c0.7,1,1.6,1.7,2.7,2.2
	c1.1,0.5,2.3,0.6,3.4,0.3c1.2-0.2,2.2-0.8,3-1.6l0.1-0.1l-0.8-0.8l-0.1,0.1c-0.6,0.6-1.5,1.1-2.4,1.3c-0.9,0.2-1.8,0.2-2.7-0.2
	c-0.9-0.3-1.6-0.8-2.2-1.6c-0.6-0.7-0.9-1.6-1-2.5h10.8v-0.5c0-1.6-0.6-3.1-1.8-4.2C95.4,12.9,93.9,12.3,92.3,12.2L92.3,12.2z
	 M92.3,13.3c1.2,0,2.4,0.4,3.3,1.2c0.9,0.8,1.5,1.9,1.6,3.1h-9.7c0.1-1.2,0.7-2.3,1.6-3.1C90,13.8,91.1,13.3,92.3,13.3L92.3,13.3z"
	/>
<path class="st0" d="M100.1,7.9H99v15.9h1.1V7.9z"/>
<path class="st0" d="M74.4,27.5c0,0.1,0,0.2-0.1,0.4c0,0.1-0.1,0.2-0.2,0.3c-0.2,0.2-0.4,0.3-0.7,0.3s-0.5-0.1-0.7-0.3
	c-0.1-0.1-0.2-0.2-0.2-0.3c0-0.1-0.1-0.2-0.1-0.4V25h-0.8v2.5c0,0.2,0,0.4,0.1,0.7c0.1,0.2,0.2,0.4,0.4,0.6c0.2,0.2,0.3,0.3,0.6,0.4
	c0.2,0.1,0.4,0.1,0.7,0.1c0.2,0,0.4,0,0.7-0.1c0.2-0.1,0.4-0.2,0.5-0.4c0.2-0.2,0.3-0.3,0.4-0.6s0.1-0.4,0.1-0.7V25h-0.8L74.4,27.5z
	"/>
<path class="st0" d="M80.4,25h-1.1l-2,1.9V25h-0.8v4.1h0.8V28l0.5-0.5l1.7,1.6h1.1L78.3,27L80.4,25z"/>
<path class="st0" d="M84.5,26.5c0-0.4-0.2-0.8-0.4-1c-0.3-0.3-0.6-0.4-1-0.4h-1.9v4.1h0.8V28h0.9l0.7,1.1h0.9l-0.7-1.3
	c0.2-0.1,0.4-0.2,0.5-0.4C84.4,27.2,84.5,26.9,84.5,26.5z M83.5,27c-0.1,0.1-0.1,0.1-0.2,0.2c-0.1,0-0.2,0.1-0.3,0h-1.1v-1.4H83
	c0.1,0,0.2,0,0.3,0c0.1,0,0.2,0.1,0.2,0.2c0.1,0.1,0.1,0.1,0.2,0.2c0,0.1,0.1,0.2,0.1,0.3c0,0.1,0,0.2-0.1,0.3
	C83.6,26.9,83.6,26.9,83.5,27z"/>
<path class="st0" d="M87.6,25h-0.5l-1.7,4.1h0.8l0.3-0.8h1.8l0.3,0.8h0.8L87.8,25H87.6z M86.9,27.6l0.6-1.3l0.5,1.3H86.9z"/>
<path class="st0" d="M91.3,25h-0.8v4.1h0.8V25z"/>
<path class="st0" d="M95.2,27.7L93.3,25h-0.2h-0.4h-0.2v4.1h0.8v-2.7l1.9,2.7h0.2h0.4h0.2V25h-0.8V27.7z"/>
<path class="st0" d="M99.9,25.8V25h-2.7v4.1h2.7v-0.8h-2v-0.9h1.8v-0.8h-1.8v-0.9H99.9z"/>
<path class="st0" d="M13.7,31.7l-0.1-0.1L0,23.8V7.9L13.7,0l0.1,0.1l13.5,7.9v15.8L13.7,31.7z M0.5,23.5l13.2,7.7l13.2-7.6V8.2
	L13.7,0.6L0.5,8.2L0.5,23.5z"/>
<path class="st0" d="M13.7,8.2L6.8,4.2l0.2-0.4l6.6,3.8l6.6-3.8l0.2,0.4L13.7,8.2z"/>
<path class="st0" d="M13.5,7.9l-0.1,16l0.5,0l0.1-16L13.5,7.9z"/>
<path class="st0" d="M20.3,27.9l-6.6-3.8l-6.5,3.8l-0.3-0.4l6.8-3.9l6.9,3.9L20.3,27.9z"/>
<path class="st0" d="M20,19.6l0,8l0.5,0l0-8L20,19.6z"/>
<path class="st0" d="M20.1,4.1L20,12.3l0.5,0l0.1-8.2L20.1,4.1z"/>
<path class="st0" d="M6.8,19.6l0,8.1l0.5,0l0-8.1L6.8,19.6z"/>
<path class="st0" d="M6.9,4.1l0,8.1l0.5,0l0-8.1L6.9,4.1z"/>
<path class="st0" d="M20.2,19.9l-6.8-3.8l0.2-0.4l6.5,3.7l6.7-3.6l0.2,0.4L20.2,19.9z"/>
<path class="st0" d="M26.9,16.2l-6.7-3.6l-6.5,3.6l-0.2-0.4l6.8-3.7l6.9,3.8L26.9,16.2z"/>
<path class="st0" d="M7.1,19.8l-6.9-3.7l0.2-0.4l6.6,3.6l6.6-3.5l0.2,0.5L7.1,19.8z"/>
<path class="st0" d="M13.6,16.2l-6.5-3.7l-6.7,3.7l-0.2-0.4l7-3.8l6.7,3.8L13.6,16.2z"/>
</svg>
